{"title":"2010.09.11-F1.14.Italy.Qualifying.BBC1_UK [TDMK1]","uid":5825149,"size":901192672,"categoryP":"video","categoryS":"tv_shows","magnet":"?xt=urn:btih:5bdf746518f912b928c1ada3b2300b122fb49515&amp;dn=2010.09.11-F1.14.Italy.Qualifying.BBC1_UK+%5BTDMK1%5D&amp;tr=udp%3A%2F%2Ftracker.openbittorrent.com%3A80&amp;tr=udp%3A%2F%2Fopen.demonii.com%3A1337&amp;tr=udp%3A%2F%2Ftracker.coppersurfer.tk%3A6969&amp;tr=udp%3A%2F%2Fexodus.desync.com%3A6969","seeders":0,"leechers":0,"uploader":"tdmk1","files":-1,"time":1284232353,"description":"2010.09.11-F1.14.Italy.Qualifying.BBC1_UK-TDMK1.m4v\n\nJake Humphrey is at the Autodromo Nazionale Monza to present the qualifying session for the 14th race of the season (Start-time 1.00pm). Lewis Hamilton claimed pole position here last year, but failed to earn any points in the race, crashing out on the final lap while in third place. Commentary by Jonathan Legard and Martin Brundle.\n\nNow encoded as 'MP4 All Play'... As a departure from the DivX files which I have uploaded in the past, I've made the decision to get with the 21st century &amp; start encoding with the following specs this year;\n\nMP4 - 640x352 - 800Kb/s H264 Video - 44.1KHz/128Kbps Stereo AAC Audio\n\nMy belief is this is the best all round setup, and hopefully you will agree!\n\nThis video will play on a computer with VLC, XBMC, XBox360, PS3, iPad all iPhones - enjoy the show... :)\n\nGeneral\nComplete name                    : 2010.09.11-F1.14.Italy.Qualifying.BBC1_UK-TDMK1.m4v\nFormat                           : MPEG-4\nFormat profile                   : Base Media / Version 2\nCodec ID                         : mp42\nFile size                        : 859 MiB\nDuration                         : 2h 9mn\nOverall bit rate                 : 931 Kbps\nEncoded date                     : UTC 2010-09-11 14:02:29\nTagged date                      : UTC 2010-09-11 16:12:49\nWriting application              : HandBrake 0.9.4 2009112300\n\nVideo\nID                               : 1\nFormat                           : AVC\nFormat/Info                      : Advanced Video Codec\nFormat profile                   : &lt;a class=&quot;__cf_email__&quot; href=&quot;/cdn-cgi/l/email-protection&quot; data-cfemail=&quot;f0bd91999eb0bcc3dec0&quot;&gt;[email&amp;#160;protected]&lt;/a&gt;&lt;script data-cfhash='f9e31' type=&quot;text/javascript&quot;&gt;\n/* &lt;![CDATA[ */!function(){try{var t=&quot;currentScript&quot;in document?document.currentScript:function(){for(var t=document.getElementsByTagName(&quot;script&quot;),e=t.length;e--;)if(t[e].getAttribute(&quot;data-cfhash&quot;))return t[e]}();if(t&amp;&amp;t.previousSibling){var e,r,n,i,c=t.previousSibling,a=c.getAttribute(&quot;data-cfemail&quot;);if(a){for(e=&quot;&quot;,r=parseInt(a.substr(0,2),16),n=2;a.length-n;n+=2)i=parseInt(a.substr(n,2),16)^r,e+=String.fromCharCode(i);e=document.createTextNode(e),c.parentNode.replaceChild(e,c)}t.parentNode.removeChild(t);}}catch(u){}}()/* ]]&gt; */&lt;/script&gt;\nFormat settings, CABAC           : Yes\nFormat settings, ReFrames        : 2 frames\nCodec ID                         : avc1\nCodec ID/Info                    : Advanced Video Coding\nDuration                         : 2h 9mn\nBit rate mode                    : Variable\nBit rate                         : 800 Kbps\nWidth                            : 640 pixels\nHeight                           : 352 pixels\nDisplay aspect ratio             : 16:9\nFrame rate mode                  : Variable\nFrame rate                       : 25.000 fps\nMinimum frame rate               : 12.498 fps\nMaximum frame rate               : 25.000 fps\nColor space                      : YUV\nChroma subsampling               : 4:2:0\nBit depth                        : 8 bits\nScan type                        : Progressive\nBits/(Pixel*Frame)               : 0.142\nStream size                      : 737 MiB (86%)\nWriting library                  : x264 core 79\nEncoding settings                : cabac=1 / ref=2 / deblock=1:0:0 / analyse=0x1:0x111 / me=hex / subme=6 / psy=1 / psy_rd=1.0:0.0 / mixed_ref=0 / me_range=16 / chroma_me=1 / trellis=0 / 8x8dct=0 / cqm=0 / deadzone=21,11 / chroma_qp_offset=-2 / threads=6 / nr=0 / decimate=1 / mbaff=0 / constrained_intra=0 / bframes=2 / b_pyramid=0 / b_adapt=1 / b_bias=0 / direct=1 / wpredb=0 / wpredp=2 / keyint=250 / keyint_min=25 / scenecut=40 / rc_lookahead=40 / rc=abr / mbtree=1 / bitrate=800 / ratetol=1.0 / qcomp=0.60 / qpmin=10 / qpmax=51 / qpstep=4 / ip_ratio=1.40 / aq=1:1.00\nEncoded date                     : UTC 2010-09-11 14:02:29\nTagged date                      : UTC 2010-09-11 16:12:49\nColor primaries                  : BT.601-6 525, BT.1358 525, BT.1700 NTSC, SMPTE 170M\nTransfer characteristics         : BT.709-5, BT.1361\nMatrix coefficients              : BT.601-6 525, BT.1358 525, BT.1700 NTSC, SMPTE 170M\n\nAudio\nID                               : 2\nFormat                           : AAC\nFormat/Info                      : Advanced Audio Codec\nFormat version                   : Version 4\nFormat profile                   : LC\nFormat settings, SBR             : No\nCodec ID                         : 40\nDuration                         : 2h 9mn\nBit rate mode                    : Variable\nBit rate                         : 128 Kbps\nMaximum bit rate                 : 177 Kbps\nChannel(s)                       : 2 channels\nChannel positions                : Front: L R\nSampling rate                    : 44.1 KHz\nStream size                      : 118 MiB (14%)\nLanguage                         : English\nEncoded date                     : UTC 2010-09-11 14:02:29\nTagged date                      : UTC 2010-09-11 16:12:47\n\n","torrent":{"xt":"urn:btih:5bdf746518f912b928c1ada3b2300b122fb49515","amp;dn":"2010.09.11-F1.14.Italy.Qualifying.BBC1_UK+%5BTDMK1%5D","amp;tr":["udp%3A%2F%2Ftracker.openbittorrent.com%3A80","udp%3A%2F%2Fopen.demonii.com%3A1337","udp%3A%2F%2Ftracker.coppersurfer.tk%3A6969","udp%3A%2F%2Fexodus.desync.com%3A6969"],"infoHash":"5bdf746518f912b928c1ada3b2300b122fb49515","infoHashBuffer":{"type":"Buffer","data":[91,223,116,101,24,249,18,185,40,193,173,163,178,48,11,18,47,180,149,21]},"announce":[],"urlList":[]}}